<svg xmlns="http://www.w3.org/2000/svg" width="200" height="40" viewBox="0 0 200 40" preserveAspectRatio="none" role="img" aria-label="Ruler edge"><title>Ruler edge</title><path d="M0 39.5H200" fill="none" stroke="#725B2F" stroke-opacity="0.35" stroke-width="1" /><path d="M0 40v-14M10 40v-4M20 40v-4M30 40v-4M40 40v-4M50 40v-8M60 40v-4M70 40v-4M80 40v-4M90 40v-4M100 40v-14M110 40v-4M120 40v-4M130 40v-4M140 40v-4M150 40v-8M160 40v-4M170 40v-4M180 40v-4M190 40v-4M200 40v-14" fill="none" stroke="#725B2F" stroke-opacity="0.35" stroke-width="1" /></svg>