<svg xmlns="http://www.w3.org/2000/svg" width="1920" height="900" viewBox="0 0 1920 900" preserveAspectRatio="xMidYMax slice" role="img" aria-label="Building elevation"><title>Building elevation</title><path d="M0 360h220v540" fill="none" stroke="#725B2F" stroke-opacity="0.3" stroke-width="1.2" /><path d="M0 828h220" fill="none" stroke="#725B2F" stroke-opacity="0.3" stroke-width="1.2" /><path d="M0 396h220" fill="none" stroke="#725B2F" stroke-opacity="0.1" stroke-width="1" /><path d="M0 432h220" fill="none" stroke="#725B2F" stroke-opacity="0.1" stroke-width="1" /><path d="M0 468h220" fill="none" stroke="#725B2F" stroke-opacity="0.1" stroke-width="1" /><path d="M0 504h220" fill="none" stroke="#725B2F" stroke-opacity="0.1" stroke-width="1" /><path d="M0 540h220" fill="none" stroke="#725B2F" stroke-opacity="0.1" stroke-width="1" /><path d="M0 576h220" fill="none" stroke="#725B2F" stroke-opacity="0.1" stroke-width="1" /><path d="M0 612h220" fill="none" stroke="#725B2F" stroke-opacity="0.1" stroke-width="1" /><path d="M0 648h220" fill="none" stroke="#725B2F" stroke-opacity="0.1" stroke-width="1" /><path d="M0 684h220" fill="none" stroke="#725B2F" stroke-opacity="0.1" stroke-width="1" /><path d="M0 720h220" fill="none" stroke="#725B2F" stroke-opacity="0.1" stroke-width="1" /><path d="M0 756h220" fill="none" stroke="#725B2F" stroke-opacity="0.1" stroke-width="1" /><path d="M0 792h220" fill="none" stroke="#725B2F" stroke-opacity="0.1" stroke-width="1" /><path d="M0 828h220" fill="none" stroke="#725B2F" stroke-opacity="0.1" stroke-width="1" /><path d="M0 864h220" fill="none" stroke="#725B2F" stroke-opacity="0.1" stroke-width="1" /><path d="M40 360v468" fill="none" stroke="#725B2F" stroke-opacity="0.06" stroke-width="1" /><path d="M80 360v468" fill="none" stroke="#725B2F" stroke-opacity="0.06" stroke-width="1" /><path d="M120 360v468" fill="none" stroke="#725B2F" stroke-opacity="0.06" stroke-width="1" /><path d="M160 360v468" fill="none" stroke="#725B2F" stroke-opacity="0.06" stroke-width="1" /><path d="M20 408h180" fill="none" stroke="#725B2F" stroke-opacity="0.14" stroke-width="1" /><path d="M20 444h180" fill="none" stroke="#725B2F" stroke-opacity="0.14" stroke-width="1" /><path d="M20 480h180" fill="none" stroke="#725B2F" stroke-opacity="0.14" stroke-width="1" /><path d="M20 516h180" fill="none" stroke="#725B2F" stroke-opacity="0.14" stroke-width="1" /><path d="M20 552h180" fill="none" stroke="#725B2F" stroke-opacity="0.14" stroke-width="1" /><path d="M20 588h180" fill="none" stroke="#725B2F" stroke-opacity="0.14" stroke-width="1" /><path d="M20 624h180" fill="none" stroke="#725B2F" stroke-opacity="0.14" stroke-width="1" /><path d="M20 660h180" fill="none" stroke="#725B2F" stroke-opacity="0.14" stroke-width="1" /><path d="M20 696h180" fill="none" stroke="#725B2F" stroke-opacity="0.14" stroke-width="1" /><path d="M20 732h180" fill="none" stroke="#725B2F" stroke-opacity="0.14" stroke-width="1" /><path d="M20 768h180" fill="none" stroke="#725B2F" stroke-opacity="0.14" stroke-width="1" /><path d="M20 804h180" fill="none" stroke="#725B2F" stroke-opacity="0.14" stroke-width="1" /><path d="M20 840h180" fill="none" stroke="#725B2F" stroke-opacity="0.14" stroke-width="1" /><path d="M55.0 360v-24h110.0v24" fill="none" stroke="#725B2F" stroke-opacity="0.3" stroke-width="1" /><path d="M244 360h280v540" fill="none" stroke="#725B2F" stroke-opacity="0.3" stroke-width="1.2" /><path d="M244 828h280" fill="none" stroke="#725B2F" stroke-opacity="0.3" stroke-width="1.2" /><path d="M244 396h280" fill="none" stroke="#725B2F" stroke-opacity="0.1" stroke-width="1" /><path d="M244 432h280" fill="none" stroke="#725B2F" stroke-opacity="0.1" stroke-width="1" /><path d="M244 468h280" fill="none" stroke="#725B2F" stroke-opacity="0.1" stroke-width="1" /><path d="M244 504h280" fill="none" stroke="#725B2F" stroke-opacity="0.1" stroke-width="1" /><path d="M244 540h280" fill="none" stroke="#725B2F" stroke-opacity="0.1" stroke-width="1" /><path d="M244 576h280" fill="none" stroke="#725B2F" stroke-opacity="0.1" stroke-width="1" /><path d="M244 612h280" fill="none" stroke="#725B2F" stroke-opacity="0.1" stroke-width="1" /><path d="M244 648h280" fill="none" stroke="#725B2F" stroke-opacity="0.1" stroke-width="1" /><path d="M244 684h280" fill="none" stroke="#725B2F" stroke-opacity="0.1" stroke-width="1" /><path d="M244 720h280" fill="none" stroke="#725B2F" stroke-opacity="0.1" stroke-width="1" /><path d="M244 756h280" fill="none" stroke="#725B2F" stroke-opacity="0.1" stroke-width="1" /><path d="M244 792h280" fill="none" stroke="#725B2F" stroke-opacity="0.1" stroke-width="1" /><path d="M244 828h280" fill="none" stroke="#725B2F" stroke-opacity="0.1" stroke-width="1" /><path d="M244 864h280" fill="none" stroke="#725B2F" stroke-opacity="0.1" stroke-width="1" /><path d="M284 360v468" fill="none" stroke="#725B2F" stroke-opacity="0.06" stroke-width="1" /><path d="M324 360v468" fill="none" stroke="#725B2F" stroke-opacity="0.06" stroke-width="1" /><path d="M364 360v468" fill="none" stroke="#725B2F" stroke-opacity="0.06" stroke-width="1" /><path d="M404 360v468" fill="none" stroke="#725B2F" stroke-opacity="0.06" stroke-width="1" /><path d="M444 360v468" fill="none" stroke="#725B2F" stroke-opacity="0.06" stroke-width="1" /><path d="M484 360v468" fill="none" stroke="#725B2F" stroke-opacity="0.06" stroke-width="1" /><path d="M264 408h240" fill="none" stroke="#725B2F" stroke-opacity="0.14" stroke-width="1" /><path d="M264 444h240" fill="none" stroke="#725B2F" stroke-opacity="0.14" stroke-width="1" /><path d="M264 480h240" fill="none" stroke="#725B2F" stroke-opacity="0.14" stroke-width="1" /><path d="M264 516h240" fill="none" stroke="#725B2F" stroke-opacity="0.14" stroke-width="1" /><path d="M264 552h240" fill="none" stroke="#725B2F" stroke-opacity="0.14" stroke-width="1" /><path d="M264 588h240" fill="none" stroke="#725B2F" stroke-opacity="0.14" stroke-width="1" /><path d="M264 624h240" fill="none" stroke="#725B2F" stroke-opacity="0.14" stroke-width="1" /><path d="M264 660h240" fill="none" stroke="#725B2F" stroke-opacity="0.14" stroke-width="1" /><path d="M264 696h240" fill="none" stroke="#725B2F" stroke-opacity="0.14" stroke-width="1" /><path d="M264 732h240" fill="none" stroke="#725B2F" stroke-opacity="0.14" stroke-width="1" /><path d="M264 768h240" fill="none" stroke="#725B2F" stroke-opacity="0.14" stroke-width="1" /><path d="M264 804h240" fill="none" stroke="#725B2F" stroke-opacity="0.14" stroke-width="1" /><path d="M264 840h240" fill="none" stroke="#725B2F" stroke-opacity="0.14" stroke-width="1" /><path d="M314.0 360v-24h140.0v24" fill="none" stroke="#725B2F" stroke-opacity="0.3" stroke-width="1" /><path d="M524 252h220v648" fill="none" stroke="#725B2F" stroke-opacity="0.3" stroke-width="1.2" /><path d="M524 828h220" fill="none" stroke="#725B2F" stroke-opacity="0.3" stroke-width="1.2" /><path d="M524 288h220" fill="none" stroke="#725B2F" stroke-opacity="0.1" stroke-width="1" /><path d="M524 324h220" fill="none" stroke="#725B2F" stroke-opacity="0.1" stroke-width="1" /><path d="M524 360h220" fill="none" stroke="#725B2F" stroke-opacity="0.1" stroke-width="1" /><path d="M524 396h220" fill="none" stroke="#725B2F" stroke-opacity="0.1" stroke-width="1" /><path d="M524 432h220" fill="none" stroke="#725B2F" stroke-opacity="0.1" stroke-width="1" /><path d="M524 468h220" fill="none" stroke="#725B2F" stroke-opacity="0.1" stroke-width="1" /><path d="M524 504h220" fill="none" stroke="#725B2F" stroke-opacity="0.1" stroke-width="1" /><path d="M524 540h220" fill="none" stroke="#725B2F" stroke-opacity="0.1" stroke-width="1" /><path d="M524 576h220" fill="none" stroke="#725B2F" stroke-opacity="0.1" stroke-width="1" /><path d="M524 612h220" fill="none" stroke="#725B2F" stroke-opacity="0.1" stroke-width="1" /><path d="M524 648h220" fill="none" stroke="#725B2F" stroke-opacity="0.1" stroke-width="1" /><path d="M524 684h220" fill="none" stroke="#725B2F" stroke-opacity="0.1" stroke-width="1" /><path d="M524 720h220" fill="none" stroke="#725B2F" stroke-opacity="0.1" stroke-width="1" /><path d="M524 756h220" fill="none" stroke="#725B2F" stroke-opacity="0.1" stroke-width="1" /><path d="M524 792h220" fill="none" stroke="#725B2F" stroke-opacity="0.1" stroke-width="1" /><path d="M524 828h220" fill="none" stroke="#725B2F" stroke-opacity="0.1" stroke-width="1" /><path d="M524 864h220" fill="none" stroke="#725B2F" stroke-opacity="0.1" stroke-width="1" /><path d="M564 252v576" fill="none" stroke="#725B2F" stroke-opacity="0.06" stroke-width="1" /><path d="M604 252v576" fill="none" stroke="#725B2F" stroke-opacity="0.06" stroke-width="1" /><path d="M644 252v576" fill="none" stroke="#725B2F" stroke-opacity="0.06" stroke-width="1" /><path d="M684 252v576" fill="none" stroke="#725B2F" stroke-opacity="0.06" stroke-width="1" /><path d="M544 300h180" fill="none" stroke="#725B2F" stroke-opacity="0.14" stroke-width="1" /><path d="M544 336h180" fill="none" stroke="#725B2F" stroke-opacity="0.14" stroke-width="1" /><path d="M544 372h180" fill="none" stroke="#725B2F" stroke-opacity="0.14" stroke-width="1" /><path d="M544 408h180" fill="none" stroke="#725B2F" stroke-opacity="0.14" stroke-width="1" /><path d="M544 444h180" fill="none" stroke="#725B2F" stroke-opacity="0.14" stroke-width="1" /><path d="M544 480h180" fill="none" stroke="#725B2F" stroke-opacity="0.14" stroke-width="1" /><path d="M544 516h180" fill="none" stroke="#725B2F" stroke-opacity="0.14" stroke-width="1" /><path d="M544 552h180" fill="none" stroke="#725B2F" stroke-opacity="0.14" stroke-width="1" /><path d="M544 588h180" fill="none" stroke="#725B2F" stroke-opacity="0.14" stroke-width="1" /><path d="M544 624h180" fill="none" stroke="#725B2F" stroke-opacity="0.14" stroke-width="1" /><path d="M544 660h180" fill="none" stroke="#725B2F" stroke-opacity="0.14" stroke-width="1" /><path d="M544 696h180" fill="none" stroke="#725B2F" stroke-opacity="0.14" stroke-width="1" /><path d="M544 732h180" fill="none" stroke="#725B2F" stroke-opacity="0.14" stroke-width="1" /><path d="M544 768h180" fill="none" stroke="#725B2F" stroke-opacity="0.14" stroke-width="1" /><path d="M544 804h180" fill="none" stroke="#725B2F" stroke-opacity="0.14" stroke-width="1" /><path d="M544 840h180" fill="none" stroke="#725B2F" stroke-opacity="0.14" stroke-width="1" /><path d="M579.0 252v-24h110.0v24" fill="none" stroke="#725B2F" stroke-opacity="0.3" stroke-width="1" /><path d="M744 468h160v432" fill="none" stroke="#725B2F" stroke-opacity="0.3" stroke-width="1.2" /><path d="M744 828h160" fill="none" stroke="#725B2F" stroke-opacity="0.3" stroke-width="1.2" /><path d="M744 504h160" fill="none" stroke="#725B2F" stroke-opacity="0.1" stroke-width="1" /><path d="M744 540h160" fill="none" stroke="#725B2F" stroke-opacity="0.1" stroke-width="1" /><path d="M744 576h160" fill="none" stroke="#725B2F" stroke-opacity="0.1" stroke-width="1" /><path d="M744 612h160" fill="none" stroke="#725B2F" stroke-opacity="0.1" stroke-width="1" /><path d="M744 648h160" fill="none" stroke="#725B2F" stroke-opacity="0.1" stroke-width="1" /><path d="M744 684h160" fill="none" stroke="#725B2F" stroke-opacity="0.1" stroke-width="1" /><path d="M744 720h160" fill="none" stroke="#725B2F" stroke-opacity="0.1" stroke-width="1" /><path d="M744 756h160" fill="none" stroke="#725B2F" stroke-opacity="0.1" stroke-width="1" /><path d="M744 792h160" fill="none" stroke="#725B2F" stroke-opacity="0.1" stroke-width="1" /><path d="M744 828h160" fill="none" stroke="#725B2F" stroke-opacity="0.1" stroke-width="1" /><path d="M744 864h160" fill="none" stroke="#725B2F" stroke-opacity="0.1" stroke-width="1" /><path d="M784 468v360" fill="none" stroke="#725B2F" stroke-opacity="0.06" stroke-width="1" /><path d="M824 468v360" fill="none" stroke="#725B2F" stroke-opacity="0.06" stroke-width="1" /><path d="M864 468v360" fill="none" stroke="#725B2F" stroke-opacity="0.06" stroke-width="1" /><path d="M764 516h120" fill="none" stroke="#725B2F" stroke-opacity="0.14" stroke-width="1" /><path d="M764 552h120" fill="none" stroke="#725B2F" stroke-opacity="0.14" stroke-width="1" /><path d="M764 588h120" fill="none" stroke="#725B2F" stroke-opacity="0.14" stroke-width="1" /><path d="M764 624h120" fill="none" stroke="#725B2F" stroke-opacity="0.14" stroke-width="1" /><path d="M764 660h120" fill="none" stroke="#725B2F" stroke-opacity="0.14" stroke-width="1" /><path d="M764 696h120" fill="none" stroke="#725B2F" stroke-opacity="0.14" stroke-width="1" /><path d="M764 732h120" fill="none" stroke="#725B2F" stroke-opacity="0.14" stroke-width="1" /><path d="M764 768h120" fill="none" stroke="#725B2F" stroke-opacity="0.14" stroke-width="1" /><path d="M764 804h120" fill="none" stroke="#725B2F" stroke-opacity="0.14" stroke-width="1" /><path d="M764 840h120" fill="none" stroke="#725B2F" stroke-opacity="0.14" stroke-width="1" /><path d="M784.0 468v-24h80.0v24" fill="none" stroke="#725B2F" stroke-opacity="0.3" stroke-width="1" /><path d="M904 576h160v324" fill="none" stroke="#725B2F" stroke-opacity="0.3" stroke-width="1.2" /><path d="M904 828h160" fill="none" stroke="#725B2F" stroke-opacity="0.3" stroke-width="1.2" /><path d="M904 612h160" fill="none" stroke="#725B2F" stroke-opacity="0.1" stroke-width="1" /><path d="M904 648h160" fill="none" stroke="#725B2F" stroke-opacity="0.1" stroke-width="1" /><path d="M904 684h160" fill="none" stroke="#725B2F" stroke-opacity="0.1" stroke-width="1" /><path d="M904 720h160" fill="none" stroke="#725B2F" stroke-opacity="0.1" stroke-width="1" /><path d="M904 756h160" fill="none" stroke="#725B2F" stroke-opacity="0.1" stroke-width="1" /><path d="M904 792h160" fill="none" stroke="#725B2F" stroke-opacity="0.1" stroke-width="1" /><path d="M904 828h160" fill="none" stroke="#725B2F" stroke-opacity="0.1" stroke-width="1" /><path d="M904 864h160" fill="none" stroke="#725B2F" stroke-opacity="0.1" stroke-width="1" /><path d="M944 576v252" fill="none" stroke="#725B2F" stroke-opacity="0.06" stroke-width="1" /><path d="M984 576v252" fill="none" stroke="#725B2F" stroke-opacity="0.06" stroke-width="1" /><path d="M1024 576v252" fill="none" stroke="#725B2F" stroke-opacity="0.06" stroke-width="1" /><path d="M924 624h120" fill="none" stroke="#725B2F" stroke-opacity="0.14" stroke-width="1" /><path d="M924 660h120" fill="none" stroke="#725B2F" stroke-opacity="0.14" stroke-width="1" /><path d="M924 696h120" fill="none" stroke="#725B2F" stroke-opacity="0.14" stroke-width="1" /><path d="M924 732h120" fill="none" stroke="#725B2F" stroke-opacity="0.14" stroke-width="1" /><path d="M924 768h120" fill="none" stroke="#725B2F" stroke-opacity="0.14" stroke-width="1" /><path d="M924 804h120" fill="none" stroke="#725B2F" stroke-opacity="0.14" stroke-width="1" /><path d="M924 840h120" fill="none" stroke="#725B2F" stroke-opacity="0.14" stroke-width="1" /><path d="M944.0 576v-24h80.0v24" fill="none" stroke="#725B2F" stroke-opacity="0.3" stroke-width="1" /><path d="M1064 684h220v216" fill="none" stroke="#725B2F" stroke-opacity="0.3" stroke-width="1.2" /><path d="M1064 828h220" fill="none" stroke="#725B2F" stroke-opacity="0.3" stroke-width="1.2" /><path d="M1064 720h220" fill="none" stroke="#725B2F" stroke-opacity="0.1" stroke-width="1" /><path d="M1064 756h220" fill="none" stroke="#725B2F" stroke-opacity="0.1" stroke-width="1" /><path d="M1064 792h220" fill="none" stroke="#725B2F" stroke-opacity="0.1" stroke-width="1" /><path d="M1064 828h220" fill="none" stroke="#725B2F" stroke-opacity="0.1" stroke-width="1" /><path d="M1064 864h220" fill="none" stroke="#725B2F" stroke-opacity="0.1" stroke-width="1" /><path d="M1104 684v144" fill="none" stroke="#725B2F" stroke-opacity="0.06" stroke-width="1" /><path d="M1144 684v144" fill="none" stroke="#725B2F" stroke-opacity="0.06" stroke-width="1" /><path d="M1184 684v144" fill="none" stroke="#725B2F" stroke-opacity="0.06" stroke-width="1" /><path d="M1224 684v144" fill="none" stroke="#725B2F" stroke-opacity="0.06" stroke-width="1" /><path d="M1119.0 684v-24h110.0v24" fill="none" stroke="#725B2F" stroke-opacity="0.3" stroke-width="1" /><path d="M1308 252h340v648" fill="none" stroke="#725B2F" stroke-opacity="0.3" stroke-width="1.2" /><path d="M1308 828h340" fill="none" stroke="#725B2F" stroke-opacity="0.3" stroke-width="1.2" /><path d="M1308 288h340" fill="none" stroke="#725B2F" stroke-opacity="0.1" stroke-width="1" /><path d="M1308 324h340" fill="none" stroke="#725B2F" stroke-opacity="0.1" stroke-width="1" /><path d="M1308 360h340" fill="none" stroke="#725B2F" stroke-opacity="0.1" stroke-width="1" /><path d="M1308 396h340" fill="none" stroke="#725B2F" stroke-opacity="0.1" stroke-width="1" /><path d="M1308 432h340" fill="none" stroke="#725B2F" stroke-opacity="0.1" stroke-width="1" /><path d="M1308 468h340" fill="none" stroke="#725B2F" stroke-opacity="0.1" stroke-width="1" /><path d="M1308 504h340" fill="none" stroke="#725B2F" stroke-opacity="0.1" stroke-width="1" /><path d="M1308 540h340" fill="none" stroke="#725B2F" stroke-opacity="0.1" stroke-width="1" /><path d="M1308 576h340" fill="none" stroke="#725B2F" stroke-opacity="0.1" stroke-width="1" /><path d="M1308 612h340" fill="none" stroke="#725B2F" stroke-opacity="0.1" stroke-width="1" /><path d="M1308 648h340" fill="none" stroke="#725B2F" stroke-opacity="0.1" stroke-width="1" /><path d="M1308 684h340" fill="none" stroke="#725B2F" stroke-opacity="0.1" stroke-width="1" /><path d="M1308 720h340" fill="none" stroke="#725B2F" stroke-opacity="0.1" stroke-width="1" /><path d="M1308 756h340" fill="none" stroke="#725B2F" stroke-opacity="0.1" stroke-width="1" /><path d="M1308 792h340" fill="none" stroke="#725B2F" stroke-opacity="0.1" stroke-width="1" /><path d="M1308 828h340" fill="none" stroke="#725B2F" stroke-opacity="0.1" stroke-width="1" /><path d="M1308 864h340" fill="none" stroke="#725B2F" stroke-opacity="0.1" stroke-width="1" /><path d="M1348 252v576" fill="none" stroke="#725B2F" stroke-opacity="0.06" stroke-width="1" /><path d="M1388 252v576" fill="none" stroke="#725B2F" stroke-opacity="0.06" stroke-width="1" /><path d="M1428 252v576" fill="none" stroke="#725B2F" stroke-opacity="0.06" stroke-width="1" /><path d="M1468 252v576" fill="none" stroke="#725B2F" stroke-opacity="0.06" stroke-width="1" /><path d="M1508 252v576" fill="none" stroke="#725B2F" stroke-opacity="0.06" stroke-width="1" /><path d="M1548 252v576" fill="none" stroke="#725B2F" stroke-opacity="0.06" stroke-width="1" /><path d="M1588 252v576" fill="none" stroke="#725B2F" stroke-opacity="0.06" stroke-width="1" /><path d="M1393.0 252v-24h170.0v24" fill="none" stroke="#725B2F" stroke-opacity="0.3" stroke-width="1" /><path d="M1648 684h340v216" fill="none" stroke="#725B2F" stroke-opacity="0.3" stroke-width="1.2" /><path d="M1648 828h340" fill="none" stroke="#725B2F" stroke-opacity="0.3" stroke-width="1.2" /><path d="M1648 720h340" fill="none" stroke="#725B2F" stroke-opacity="0.1" stroke-width="1" /><path d="M1648 756h340" fill="none" stroke="#725B2F" stroke-opacity="0.1" stroke-width="1" /><path d="M1648 792h340" fill="none" stroke="#725B2F" stroke-opacity="0.1" stroke-width="1" /><path d="M1648 828h340" fill="none" stroke="#725B2F" stroke-opacity="0.1" stroke-width="1" /><path d="M1648 864h340" fill="none" stroke="#725B2F" stroke-opacity="0.1" stroke-width="1" /><path d="M1688 684v144" fill="none" stroke="#725B2F" stroke-opacity="0.06" stroke-width="1" /><path d="M1728 684v144" fill="none" stroke="#725B2F" stroke-opacity="0.06" stroke-width="1" /><path d="M1768 684v144" fill="none" stroke="#725B2F" stroke-opacity="0.06" stroke-width="1" /><path d="M1808 684v144" fill="none" stroke="#725B2F" stroke-opacity="0.06" stroke-width="1" /><path d="M1848 684v144" fill="none" stroke="#725B2F" stroke-opacity="0.06" stroke-width="1" /><path d="M1888 684v144" fill="none" stroke="#725B2F" stroke-opacity="0.06" stroke-width="1" /><path d="M1928 684v144" fill="none" stroke="#725B2F" stroke-opacity="0.06" stroke-width="1" /><path d="M1668 732h300" fill="none" stroke="#725B2F" stroke-opacity="0.14" stroke-width="1" /><path d="M1668 768h300" fill="none" stroke="#725B2F" stroke-opacity="0.14" stroke-width="1" /><path d="M1668 804h300" fill="none" stroke="#725B2F" stroke-opacity="0.14" stroke-width="1" /><path d="M1668 840h300" fill="none" stroke="#725B2F" stroke-opacity="0.14" stroke-width="1" /><path d="M1733.0 684v-24h170.0v24" fill="none" stroke="#725B2F" stroke-opacity="0.3" stroke-width="1" /><path d="M0 900H1920" fill="none" stroke="#725B2F" stroke-opacity="0.4" stroke-width="1.5" /><path d="M0 900v-8 M80 900v-8 M160 900v-8 M240 900v-8 M320 900v-8 M400 900v-8 M480 900v-8 M560 900v-8 M640 900v-8 M720 900v-8 M800 900v-8 M880 900v-8 M960 900v-8 M1040 900v-8 M1120 900v-8 M1200 900v-8 M1280 900v-8 M1360 900v-8 M1440 900v-8 M1520 900v-8 M1600 900v-8 M1680 900v-8 M1760 900v-8 M1840 900v-8 M1920 900v-8" fill="none" stroke="#725B2F" stroke-opacity="0.3" stroke-width="1" /></svg>